<?xml version="1.0" encoding="utf-8"?>
<!-- Generator: Adobe Illustrator 27.2.0, SVG Export Plug-In . SVG Version: 6.00 Build 0)  -->
<svg version="1.1" xmlns="http://www.w3.org/2000/svg" xmlns:xlink="http://www.w3.org/1999/xlink" x="0px" y="0px"
	 viewBox="0 0 500 500" style="enable-background:new 0 0 500 500;" xml:space="preserve">
<style type="text/css">
	.st0{display:none;}
	.st1{display:inline;fill:#D9D9D9;}
	.st2{display:inline;}
	.st3{fill:#D9D9D9;}
</style>
<g id="Camada_1" class="st0">
	<g id="Camada_1_00000060024931034408472000000008291752361672706735_">
		<path class="st1" d="M450,0H50C22.4,0,0,22.4,0,50v400c0,27.6,22.4,50,50,50h400c27.6,0,50-22.4,50-50V50C500,22.4,477.6,0,450,0z
			 M387,234.7c-7.2,18.4-20.4,31.6-38,40.4c-9.2,4.6-18.9,7.8-28.9,9.8c-6.6,1.4-13.3,2.4-20.5,3.6c5,4.6,8.1,9.8,10.2,15.5
			c2.9,7.7,4,15.8,4,24c0,20.6,0,41.2,0,62.1c0,0-1.4,39.7-53.7,39.7s-52.9-39.7-52.9-39.7c0-12.6,0.2-26.8,0.2-39.5
			c-9.3,2.1-18.5,3.1-27.8,2.3c-20.5-1.7-35.8-10.8-44-30.5c-5.4-12.8-13.1-24-25.3-31.4c-2.1-1.3-4.1-2.9-5.6-4.9
			c-2.1-2.8-1.5-4.9,1.8-6.1c3.7-1.4,7.6-1.3,11.5-0.5c12.4,2.5,21.5,9.6,28.1,20.1c14.1,22.1,35.6,28.9,59.9,19
			c2-0.8,3-1.9,3.2-4.1c0.6-5.7,2.5-11,5.3-16c1.8-3.2,4.3-5.9,7.2-9c-10.4-1.1-19.8-2.8-29.1-5.4c-29.6-8.2-51.1-25.4-61.1-55.3
			c-5-15-6.5-30.5-6.2-46.2c0.3-19.8,6.3-37.4,19.1-52.6c1.5-1.8,1.8-3.3,1.2-5.6c-4.3-15.6-3.9-31.1,0.9-46.6
			c1-3.3,1.8-5.4,2.8-6.6l4-1.4c1.3,0,3,0.3,5.1,0.6c13.2,2,25.5,6.8,36.4,14c9,6,17.4,6.5,27.7,4.4c29.3-5.8,58.8-5.7,87.9,2
			c2.6,0.7,4.4,0.2,6.5-1.1c9.4-6,19.3-11.3,29.8-15.2c7.1-2.6,14.5-4.7,22.2-4.5c1.7,0,3.1,0.2,3.9,2.2c6.2,16.7,8.7,33.7,3,51
			c-0.8,2.3-0.5,3.7,1,5.5c6.8,8,11.9,17,14.8,27C399.5,182.8,397,209.1,387,234.7z"/>
	</g>
	<g id="Camada_2_00000176737361807076507050000004327368428327698594_" class="st2">
		<path class="st3" d="M450,0H50C22.4,0,0,22.4,0,50v400c0,27.6,22.4,50,50,50h400c27.6,0,50-22.4,50-50V50C500,22.4,477.6,0,450,0z
			 M161.6,239.7V427H79V253.6V191h82.6L161.6,239.7L161.6,239.7z M120.3,155.6c-22.8,0-41.3-18.5-41.3-41.3S97.5,73,120.3,73
			s41.3,18.5,41.3,41.3S143.1,155.6,120.3,155.6z M433,297.3V427h-70.8V312c0-27.4-3-62.7-40.6-62.7c-38.1,0-44,29.9-44,60.7v117
			h-68.8V236.3V191h65.8v31.8h1c9.8-18.6,33.8-31.8,69.4-31.8c60.1,0,80.6,28,86.2,72.5C432.5,273.9,433,285.2,433,297.3L433,297.3z
			"/>
	</g>
</g>
<g id="Camada_2" class="st0">
	<path class="st1" d="M450,0H50C22.4,0,0,22.4,0,50v400c0,27.6,22.4,50,50,50h400c27.6,0,50-22.4,50-50V50C500,22.4,477.6,0,450,0z
		 M375.9,174.4v151.1c0,13.9-11.3,25.2-25.2,25.2H149.3c-13.9,0-25.2-11.3-25.2-25.2V174.4c0,0,0,0,0,0l0,0l0,0
		c0-13.9,11.3-25.2,25.2-25.2h201.5C364.6,149.3,375.9,160.6,375.9,174.4L375.9,174.4L375.9,174.4
		C375.9,174.4,375.9,174.4,375.9,174.4z"/>
	<path class="st1" d="M131.4,188.5C131.4,188.5,131.4,188.5,131.4,188.5v131.9c0,12.1,10.7,22,23.8,22h190.6
		c13.1,0,23.8-9.9,23.8-22V188.5c0,0,0,0,0,0l-119.1,77L131.4,188.5z"/>
	<path class="st1" d="M345.9,157.1H155.3c-13.1,0-23.8,9.9-23.8,21.9l119.1,76.7L369.7,179C369.7,167,359,157.1,345.9,157.1z"/>
</g>
<g id="Camada_3">
	<path class="st3" d="M450,0H50C22.4,0,0,22.4,0,50v400c0,27.6,22.4,50,50,50h400c27.6,0,50-22.4,50-50V50C500,22.4,477.6,0,450,0z
		 M415.6,349.4c0,18.2-14.9,33.1-33.1,33.1h-265c-18.2,0-33.1-14.9-33.1-33.1V150.6c0-18.2,14.9-33.1,33.1-33.1h265
		c18.2,0,33.1,14.9,33.1,33.1V349.4z"/>
	<g>
		<path class="st3" d="M392.4,163.1v-0.7c0-13.3-12.8-24.1-28.5-24.1H136c-15.7,0-28.5,10.9-28.5,24.1v0.7L250,250L392.4,163.1z"/>
		<path class="st3" d="M250,277.8l-142.4-86.9v144c0,13.3,12.8,24.1,28.5,24.1H364c15.7,0,28.5-10.9,28.5-24.1v-144L250,277.8z"/>
	</g>
</g>
</svg>
