<?xml version="1.0" encoding="utf-8"?>
<!-- Generator: Adobe Illustrator 27.2.0, SVG Export Plug-In . SVG Version: 6.00 Build 0)  -->
<svg version="1.1" id="Camada_1" xmlns="http://www.w3.org/2000/svg" xmlns:xlink="http://www.w3.org/1999/xlink" x="0px" y="0px"
	 viewBox="0 0 500 500" style="enable-background:new 0 0 500 500;" xml:space="preserve">
<style type="text/css">
	.st0{fill:#D9D9D9;}
</style>
<path class="st0" d="M450,0H50C22.39,0,0,22.39,0,50v400c0,27.61,22.39,50,50,50h400c27.61,0,50-22.39,50-50V50
	C500,22.39,477.61,0,450,0z M386.96,234.72c-7.21,18.38-20.37,31.59-37.98,40.43c-9.18,4.61-18.87,7.78-28.9,9.84
	c-6.63,1.36-13.32,2.39-20.46,3.65c4.96,4.62,8.06,9.77,10.22,15.53c2.9,7.73,4.01,15.75,4.01,23.97c0,20.6,0,41.19,0,62.15
	c0,0-1.43,39.74-53.7,39.74c-52.27,0-52.89-39.74-52.89-39.74c0-12.57,0.23-26.75,0.23-39.53c-9.27,2.11-18.47,3.08-27.75,2.32
	c-20.49-1.68-35.76-10.84-44.02-30.48c-5.39-12.8-13.09-23.99-25.3-31.44c-2.12-1.3-4.05-2.91-5.55-4.93
	c-2.09-2.81-1.51-4.89,1.77-6.08c3.74-1.36,7.61-1.26,11.46-0.5c12.4,2.47,21.48,9.63,28.15,20.11
	c14.08,22.11,35.6,28.93,59.94,19.03c2.01-0.82,2.96-1.85,3.22-4.15c0.64-5.66,2.46-11.01,5.28-16.01c1.81-3.19,4.3-5.87,7.18-9.02
	c-10.37-1.13-19.84-2.82-29.14-5.41c-29.6-8.22-51.14-25.38-61.06-55.29c-4.97-14.98-6.48-30.46-6.25-46.17
	c0.29-19.75,6.26-37.44,19.13-52.59c1.51-1.78,1.82-3.28,1.2-5.57c-4.26-15.58-3.95-31.13,0.86-46.56c1.04-3.33,1.75-5.39,2.76-6.59
	l4.04-1.44c1.31,0.03,2.97,0.26,5.12,0.58c13.2,1.96,25.53,6.76,36.42,14.04c9.02,6.03,17.38,6.49,27.71,4.45
	c29.32-5.77,58.78-5.66,87.91,1.96c2.57,0.67,4.38,0.23,6.47-1.1c9.44-6.02,19.28-11.3,29.82-15.17c7.15-2.63,14.45-4.68,22.18-4.53
	c1.71,0.03,3.14,0.17,3.9,2.23c6.23,16.72,8.74,33.66,3.04,51.04c-0.76,2.31-0.5,3.68,1.03,5.48c6.79,7.97,11.91,16.98,14.8,27.04
	C399.53,182.78,397.02,209.1,386.96,234.72z"/>
</svg>
