<?xml version="1.0" encoding="utf-8"?>
<!-- Generator: Adobe Illustrator 27.2.0, SVG Export Plug-In . SVG Version: 6.00 Build 0)  -->
<svg version="1.1" xmlns="http://www.w3.org/2000/svg" xmlns:xlink="http://www.w3.org/1999/xlink" x="0px" y="0px"
	 viewBox="0 0 500 500" style="enable-background:new 0 0 500 500;" xml:space="preserve">
<style type="text/css">
	.st0{display:none;}
	.st1{display:inline;fill:#D9D9D9;}
	.st2{fill:#D9D9D9;}
</style>
<g id="Camada_1" class="st0">
	<path class="st1" d="M450,0H50C22.39,0,0,22.39,0,50v400c0,27.61,22.39,50,50,50h400c27.61,0,50-22.39,50-50V50
		C500,22.39,477.61,0,450,0z M386.96,234.72c-7.21,18.38-20.37,31.59-37.98,40.43c-9.18,4.61-18.87,7.78-28.9,9.84
		c-6.63,1.36-13.32,2.39-20.46,3.65c4.96,4.62,8.06,9.77,10.22,15.53c2.9,7.73,4.01,15.75,4.01,23.97c0,20.6,0,41.19,0,62.15
		c0,0-1.43,39.74-53.7,39.74c-52.27,0-52.89-39.74-52.89-39.74c0-12.57,0.23-26.75,0.23-39.53c-9.27,2.11-18.47,3.08-27.75,2.32
		c-20.49-1.68-35.76-10.84-44.02-30.48c-5.39-12.8-13.09-23.99-25.3-31.44c-2.12-1.3-4.05-2.91-5.55-4.93
		c-2.09-2.81-1.51-4.89,1.77-6.08c3.74-1.36,7.61-1.26,11.46-0.5c12.4,2.47,21.48,9.63,28.15,20.11
		c14.08,22.11,35.6,28.93,59.94,19.03c2.01-0.82,2.96-1.85,3.22-4.15c0.64-5.66,2.46-11.01,5.28-16.01c1.81-3.19,4.3-5.87,7.18-9.02
		c-10.37-1.13-19.84-2.82-29.14-5.41c-29.6-8.22-51.14-25.38-61.06-55.29c-4.97-14.98-6.48-30.46-6.25-46.17
		c0.29-19.75,6.26-37.44,19.13-52.59c1.51-1.78,1.82-3.28,1.2-5.57c-4.26-15.58-3.95-31.13,0.86-46.56
		c1.04-3.33,1.75-5.39,2.76-6.59l4.04-1.44c1.31,0.03,2.97,0.26,5.12,0.58c13.2,1.96,25.53,6.76,36.42,14.04
		c9.02,6.03,17.38,6.49,27.71,4.45c29.32-5.77,58.78-5.66,87.91,1.96c2.57,0.67,4.38,0.23,6.47-1.1
		c9.44-6.02,19.28-11.3,29.82-15.17c7.15-2.63,14.45-4.68,22.18-4.53c1.71,0.03,3.14,0.17,3.9,2.23
		c6.23,16.72,8.74,33.66,3.04,51.04c-0.76,2.31-0.5,3.68,1.03,5.48c6.79,7.97,11.91,16.98,14.8,27.04
		C399.53,182.78,397.02,209.1,386.96,234.72z"/>
</g>
<g id="Camada_2">
	<path class="st2" d="M450,0H50C22.39,0,0,22.39,0,50v400c0,27.61,22.39,50,50,50h400c27.61,0,50-22.39,50-50V50
		C500,22.39,477.61,0,450,0z M161.61,239.69V427H78.99V253.63V191h82.61V239.69z M120.31,155.6c-22.81,0-41.31-18.49-41.31-41.3
		c0-22.81,18.5-41.3,41.31-41.3c22.81,0,41.3,18.49,41.3,41.3C161.61,137.11,143.12,155.6,120.31,155.6z M433,297.31V427h-70.81
		V312.02c0-27.44-3.02-62.7-40.62-62.7c-38.15,0-43.98,29.86-43.98,60.71V427h-68.77V236.28V191h65.79v31.84h1.02
		c9.79-18.6,33.75-31.84,69.42-31.84c60.14,0,80.57,27.98,86.16,72.46C432.5,273.88,433.01,285.22,433,297.31L433,297.31z"/>
</g>
</svg>
